<svg xmlns="http://www.w3.org/2000/svg" width="798" height="277" viewBox="0 0 798 277" version="1.1"><path d="M 80.500 35.884 C 73.655 37.668, 68.713 41.554, 65.728 47.500 C 64.900 49.150, 60.945 66.700, 56.939 86.500 C 52.934 106.300, 49.043 123.229, 48.292 124.119 C 47.541 125.010, 44.975 126.006, 42.589 126.333 C 35.909 127.248, 20.090 132.643, 14.313 135.976 C 1.124 143.585, -0.031 153.919, 11.467 161.430 C 31.048 174.222, 90.829 182.106, 157.500 180.691 C 186.648 180.072, 200.925 179.025, 222 175.959 C 271.150 168.810, 291.043 156.508, 277.814 141.441 C 273.583 136.622, 260.714 130.616, 248.069 127.560 C 242.333 126.173, 237.226 124.626, 236.721 124.121 C 236.216 123.616, 232.470 107.070, 228.395 87.352 C 224.320 67.633, 220.508 50.048, 219.923 48.274 C 218.321 43.411, 210.853 37.349, 204.889 36.070 C 198.425 34.683, 178.598 34.693, 171.799 36.085 C 166.863 37.097, 165.773 37.918, 155.884 48.085 C 147.528 56.677, 144.692 59, 142.557 59 C 139.711 59, 139.284 58.629, 127.787 46.191 C 118.684 36.343, 116.873 35.673, 98.500 35.359 C 90.250 35.217, 82.150 35.453, 80.500 35.884 M 80.825 51.038 C 78.443 52.428, 77.964 54.322, 69.475 95.893 C 65.275 116.459, 61.316 134.122, 60.677 135.145 C 59.365 137.246, 55.799 138.526, 48.500 139.516 C 38.744 140.839, 20 147.700, 20 149.948 C 20 152.110, 38.463 157.437, 58 160.912 C 82.817 165.327, 99.191 166.399, 142 166.411 C 173.777 166.421, 185.946 166.048, 198.500 164.682 C 227.332 161.542, 253.706 156.231, 262.343 151.825 C 266.062 149.928, 266.245 149.652, 264.591 148.443 C 261.324 146.054, 248.674 141.961, 237.607 139.713 C 228.511 137.865, 226.418 137.088, 224.924 135 C 223.770 133.388, 220.235 118.468, 214.974 93 C 209.940 68.630, 206.216 52.830, 205.252 51.750 C 203.894 50.228, 201.703 50, 188.455 50 L 173.220 50 164.101 59.890 C 154.025 70.819, 150.054 73.286, 142.538 73.286 C 135.202 73.286, 130.753 70.493, 120.681 59.567 L 111.862 50 97.181 50.030 C 89.106 50.047, 81.746 50.501, 80.825 51.038 M 375.667 129.667 C 375.300 130.033, 375.007 130.821, 375.015 131.417 C 375.025 132.115, 375.296 132.082, 375.778 131.324 C 376.190 130.678, 378.320 129.966, 380.513 129.743 L 384.500 129.336 380.417 129.168 C 378.171 129.076, 376.033 129.300, 375.667 129.667 M 528.750 129.706 C 529.987 129.944, 532.013 129.944, 533.250 129.706 C 534.487 129.467, 533.475 129.272, 531 129.272 C 528.525 129.272, 527.513 129.467, 528.750 129.706 M 556.750 129.706 C 557.987 129.944, 560.013 129.944, 561.250 129.706 C 562.487 129.467, 561.475 129.272, 559 129.272 C 556.525 129.272, 555.513 129.467, 556.750 129.706 M 580.768 129.725 C 582.565 129.947, 585.265 129.943, 586.768 129.715 C 588.271 129.486, 586.800 129.304, 583.500 129.310 C 580.200 129.315, 578.971 129.502, 580.768 129.725 M 598.264 129.718 C 599.784 129.947, 602.034 129.941, 603.264 129.704 C 604.494 129.467, 603.250 129.279, 600.500 129.286 C 597.750 129.294, 596.744 129.488, 598.264 129.718 M 706.250 129.716 C 707.763 129.945, 710.237 129.945, 711.750 129.716 C 713.263 129.487, 712.025 129.300, 709 129.300 C 705.975 129.300, 704.737 129.487, 706.250 129.716 M 723.768 129.725 C 725.565 129.947, 728.265 129.943, 729.768 129.715 C 731.271 129.486, 729.800 129.304, 726.500 129.310 C 723.200 129.315, 721.971 129.502, 723.768 129.725 M 569.286 143.500 C 569.294 146.250, 569.488 147.256, 569.718 145.736 C 569.947 144.216, 569.941 141.966, 569.704 140.736 C 569.467 139.506, 569.279 140.750, 569.286 143.500 M 362.272 153 C 362.272 155.475, 362.467 156.488, 362.706 155.250 C 362.944 154.012, 362.944 151.988, 362.706 150.750 C 362.467 149.512, 362.272 150.525, 362.272 153 M 47.441 198.418 C 45.618 199.750, 45.482 201.444, 45.204 226.251 C 44.928 250.962, 45.031 252.817, 46.809 255.012 C 48.494 257.094, 52.823 258.182, 85.105 264.640 C 113.926 270.406, 122.038 271.710, 124.086 270.907 C 125.558 270.330, 129.844 265.610, 134.039 259.947 C 138.092 254.476, 141.918 250, 142.541 250 C 143.165 250, 146.995 254.472, 151.053 259.938 C 155.111 265.404, 159.468 270.348, 160.734 270.925 C 162.547 271.751, 170.638 270.467, 198.760 264.893 C 233.377 258.031, 237.674 256.938, 239.235 254.600 C 239.639 253.995, 239.976 241.788, 239.985 227.473 C 240.004 195.057, 240.545 196.428, 228.096 197.379 C 223.368 197.740, 213.650 198.739, 206.500 199.599 C 197.848 200.639, 180.456 201.342, 154.500 201.699 C 115.184 202.240, 95.735 201.503, 68.655 198.449 C 52.663 196.645, 49.874 196.641, 47.441 198.418 M 296.750 207.706 C 297.988 207.944, 300.012 207.944, 301.250 207.706 C 302.488 207.467, 301.475 207.272, 299 207.272 C 296.525 207.272, 295.512 207.467, 296.750 207.706 M 308.750 207.706 C 309.988 207.944, 312.012 207.944, 313.250 207.706 C 314.488 207.467, 313.475 207.272, 311 207.272 C 308.525 207.272, 307.512 207.467, 308.750 207.706 M 458.402 211.243 L 458.500 215.500 463.256 215.592 L 468.013 215.684 463.561 215.290 C 459.192 214.902, 459.102 214.822, 458.707 210.940 L 458.304 206.985 458.402 211.243 M 59 228.286 C 59 243.204, 59.175 244.919, 60.750 245.404 C 64.545 246.573, 113.209 256, 115.449 256 C 119.609 256, 120.849 254.979, 126.527 246.875 C 133.174 237.389, 140.059 230, 142.252 230 C 144.988 230, 149.706 234.782, 157.646 245.604 C 162.143 251.732, 166.168 256.224, 167.401 256.489 C 168.556 256.737, 182.100 254.333, 197.500 251.146 L 225.500 245.352 225.775 228.536 L 226.050 211.720 218.775 212.347 C 190.336 214.802, 174.943 215.407, 141.500 215.387 C 107.715 215.366, 97.017 214.934, 66.750 212.364 L 59 211.707 59 228.286 M 420.355 220.500 C 420.352 225.450, 420.521 227.601, 420.731 225.280 C 420.940 222.959, 420.943 218.909, 420.736 216.280 C 420.530 213.651, 420.358 215.550, 420.355 220.500 M 600.320 224 C 600.320 227.575, 600.502 229.037, 600.723 227.250 C 600.945 225.463, 600.945 222.537, 600.723 220.750 C 600.502 218.963, 600.320 220.425, 600.320 224 M 458.310 224.500 C 458.315 227.800, 458.502 229.029, 458.725 227.232 C 458.947 225.435, 458.943 222.735, 458.715 221.232 C 458.486 219.729, 458.304 221.200, 458.310 224.500" stroke="none" fill="#bc1919" fill-rule="evenodd"/><path d="M 675.872 117.996 C 667.827 119.392, 661.896 123.757, 659.924 129.730 C 657.390 137.410, 661.346 143.243, 673 149.009 C 680.947 152.941, 683 154.674, 683 157.455 C 683 160.674, 681.066 162, 676.371 162 C 671.458 162, 669.336 160.308, 668.471 155.698 C 667.896 152.634, 667.659 152.480, 664.052 152.824 L 660.240 153.187 659.545 160.238 C 658.746 168.353, 658.762 168.375, 666.979 170.092 C 674.090 171.578, 683.326 170.585, 689 167.726 C 697.324 163.530, 700.198 153.336, 694.941 146.652 C 693.838 145.250, 689.086 142.204, 684.381 139.884 C 675.709 135.608, 672.465 132.558, 673.557 129.711 C 674.475 127.320, 679.556 125.881, 682.767 127.102 C 685.939 128.308, 686.964 129.680, 686.985 132.750 C 686.998 134.691, 687.528 135, 690.853 135 L 694.707 135 695.873 127.937 C 696.515 124.052, 696.804 120.491, 696.515 120.024 C 696.009 119.206, 692.196 118.451, 684.250 117.597 C 682.188 117.375, 678.417 117.555, 675.872 117.996 M 314.097 118.851 C 311.990 119.459, 310.819 122.132, 304.597 140.543 C 300.039 154.029, 296.695 162.339, 295.250 163.771 C 294.012 164.997, 293 166.900, 293 168 C 293 169.877, 293.667 170, 303.883 170 C 314.324 170, 314.791 169.909, 315.370 167.750 C 316.316 164.220, 316.180 164, 313.059 164 C 309.291 164, 308.590 162.772, 309.972 158.586 C 311.213 154.825, 312.981 154.035, 320.205 154.014 C 324.791 154, 324.926 154.088, 325.565 157.492 C 326.389 161.885, 325.603 164, 323.148 164 C 321.489 164, 320.066 166.383, 320.014 169.250 C 320.006 169.662, 325.850 170, 333 170 L 346 170 346 167 C 346 165.021, 345.497 164, 344.523 164 C 341.852 164, 340.179 159.746, 334.692 139 L 329.271 118.500 322.885 118.329 C 319.373 118.235, 315.419 118.470, 314.097 118.851 M 498.667 118.667 C 498.300 119.033, 498 120.383, 498 121.667 C 498 123.247, 498.581 124, 499.800 124 C 503.597 124, 504 125.837, 504 143.118 C 504 152.313, 503.714 160.583, 503.364 161.495 C 503.014 162.407, 501.664 163.558, 500.364 164.052 C 498.740 164.669, 498 165.741, 498 167.475 L 498 170 509.893 170 C 519.815 170, 521.887 169.738, 522.393 168.418 C 523.560 165.378, 522.979 164.130, 520.250 163.816 L 517.500 163.500 517.205 147.500 C 516.849 128.236, 517.212 125.680, 520.517 124.174 C 522.205 123.405, 523 122.236, 523 120.521 L 523 118 511.167 118 C 504.658 118, 499.033 118.300, 498.667 118.667 M 347.998 132.142 C 347.999 134.124, 348.624 134.940, 350.500 135.411 L 353 136.038 353 149.019 C 353 160.442, 352.772 162.228, 351.099 163.901 C 350.053 164.947, 348.892 166.764, 348.520 167.938 C 347.855 170.033, 348.031 170.069, 357.671 169.787 C 367.002 169.515, 367.516 169.386, 367.820 167.250 C 368.060 165.557, 367.642 165, 366.129 165 C 365.023 165, 363.904 164.654, 363.642 164.230 C 362.608 162.557, 361.770 149, 362.701 149 C 363.229 149, 367 153.966, 371.080 160.036 L 378.500 171.072 383.482 170.471 C 386.222 170.140, 388.697 169.637, 388.982 169.352 C 389.267 169.067, 389.660 161.664, 389.855 152.900 C 390.160 139.213, 390.454 136.792, 391.936 135.733 C 392.884 135.055, 393.920 133.488, 394.237 132.250 C 394.803 130.037, 394.661 130, 385.513 130 C 377.956 130, 376.100 130.296, 375.607 131.582 C 374.590 134.232, 374.910 135, 377.031 135 C 379.738 135, 380.153 136.437, 379.799 144.566 L 379.500 151.433 372.500 140.843 L 365.500 130.254 356.748 129.877 L 347.995 129.500 347.998 132.142 M 408.250 129.745 C 403.163 129.927, 399 130.471, 399 130.956 C 399 131.440, 398.741 132.512, 398.424 133.339 C 398.028 134.368, 398.579 134.945, 400.174 135.170 C 402.453 135.493, 402.506 135.759, 402.780 148.260 C 403.064 161.184, 402.308 165, 399.465 165 C 398.569 165, 398 165.971, 398 167.500 C 398 169.972, 398.103 170.002, 407.250 170.197 C 420.811 170.486, 424.938 170.074, 428.924 168.029 C 436.260 164.266, 440 157.672, 440 148.500 C 440 141.664, 438.236 137.218, 434.165 133.792 C 431.219 131.313, 422.881 128.759, 419.201 129.208 C 418.265 129.322, 413.337 129.564, 408.250 129.745 M 449.360 129.744 C 440.509 130.062, 440.204 130.151, 439.740 132.578 C 439.362 134.557, 439.847 135.386, 442.045 136.523 C 445.838 138.485, 455 154.500, 455 159.169 C 455 162.915, 453.540 165, 450.917 165 C 449.545 165, 448.089 167.506, 448.012 170 C 447.977 171.123, 472.477 169.847, 473.214 168.688 C 474.618 166.479, 474.011 165, 471.700 165 C 465.885 165, 465.562 159.606, 470.750 149.172 C 472.813 145.024, 476.188 139.913, 478.250 137.815 C 480.313 135.717, 482 133.100, 482 132 C 482 130.159, 481.333 130, 473.617 130 C 466.071 130, 465.181 130.200, 464.710 132.002 C 464.391 133.223, 464.805 134.351, 465.771 134.892 C 467.209 135.696, 467.193 136.206, 465.599 140.379 C 464.633 142.909, 463.420 145.240, 462.904 145.560 C 461.977 146.133, 458.065 138.672, 458.022 136.250 C 458.010 135.563, 458.675 135, 459.500 135 C 460.500 135, 461 134, 461 132 C 461 130.156, 460.518 129.080, 459.750 129.208 C 459.063 129.322, 454.387 129.563, 449.360 129.744 M 591.750 129.748 C 578.063 130.055, 578 130.067, 578 132.412 C 578 133.937, 578.715 134.954, 580.029 135.297 C 581.961 135.803, 582.044 136.484, 581.779 149.664 C 581.512 162.925, 581.406 163.541, 579.250 164.487 C 577.777 165.134, 576.999 166.342, 576.998 167.987 L 576.996 170.500 588.748 170 L 600.500 169.500 600.813 166.250 C 601.114 163.133, 600.981 163, 597.563 163 C 594.012 163, 594 162.984, 594 158.548 L 594 154.095 600.250 153.798 C 606.500 153.500, 606.500 153.500, 606.813 150.250 L 607.127 147 600.509 147 L 593.890 147 594.195 142.250 C 594.497 137.554, 594.542 137.496, 598.216 137.192 C 601.484 136.920, 602.010 137.192, 602.575 139.442 C 603.126 141.638, 603.768 142, 607.108 142 C 610.862 142, 611 141.880, 611 138.625 C 611 136.769, 611.281 133.844, 611.625 132.125 C 612.232 129.090, 612.153 129.006, 608.875 129.219 C 607.019 129.340, 599.313 129.578, 591.750 129.748 M 626.759 130.423 C 618.581 133.342, 615.742 136.814, 613.993 146.039 C 610.886 162.418, 622.261 173.368, 638.815 169.936 C 650.490 167.515, 656.712 156.563, 653.955 143.284 C 653.101 139.171, 651.877 136.677, 649.587 134.387 C 644.470 129.270, 634.728 127.579, 626.759 130.423 M 717.750 129.748 C 703.009 130.053, 703 130.055, 703 132.410 C 703 133.926, 703.714 134.953, 705 135.290 C 706.876 135.780, 707 136.654, 707 149.350 C 707 161.588, 706.815 163.016, 705.071 164.238 C 704.009 164.981, 702.863 166.694, 702.524 168.045 L 701.906 170.500 719.383 170.206 L 736.860 169.912 737.377 167.206 C 737.661 165.718, 738.182 162.588, 738.534 160.250 C 739.161 156.095, 739.112 156, 736.338 156.015 C 732.947 156.034, 732.004 156.635, 729.704 160.250 C 728.221 162.580, 727.270 163, 723.477 163 L 719 163 719 158 L 719 153 725.383 153 C 731.158 153, 731.824 152.785, 732.370 150.750 C 733.589 146.200, 733.321 146, 726 146 C 719.403 146, 719.001 145.870, 719.014 143.750 C 719.048 138.049, 720.007 136.879, 724.380 137.199 C 727.944 137.459, 728.540 137.841, 728.794 140.022 C 729.063 142.320, 729.441 142.511, 733.052 142.166 C 737.311 141.760, 737.294 141.789, 738.449 133.250 L 739.024 129 735.762 129.221 C 733.968 129.343, 725.862 129.580, 717.750 129.748 M 756.558 130.423 C 747.383 133.853, 742.985 140.363, 743.022 150.462 C 743.077 165.664, 752.126 172.393, 769.248 169.965 C 773.213 169.402, 776.853 168.547, 777.337 168.063 C 777.820 167.580, 778.445 164.323, 778.726 160.826 L 779.236 154.467 774.725 154.826 C 770.650 155.150, 770.156 155.468, 769.628 158.109 C 768.903 161.735, 765.143 163.478, 761.564 161.847 C 758.159 160.296, 756.499 155.639, 756.506 147.657 C 756.512 141.680, 756.811 140.571, 758.867 138.907 C 761.525 136.754, 766 136.400, 767.800 138.200 C 768.460 138.860, 769 140.660, 769 142.200 C 769 144.838, 769.252 145, 773.352 145 L 777.704 145 778.820 138.268 C 779.433 134.565, 779.592 131.192, 779.171 130.771 C 777.555 129.155, 760.646 128.894, 756.558 130.423 M 316.143 137.250 C 313.178 147.251, 313.203 147.370, 318.083 146.716 C 320.328 146.415, 322.398 145.935, 322.683 145.650 C 323.376 144.957, 319.820 130, 318.963 130 C 318.594 130, 317.324 133.262, 316.143 137.250 M 527 132.500 C 527 134.241, 527.547 135, 528.800 135 C 532.384 135, 532.797 136.757, 532.293 149.840 C 531.876 160.660, 531.528 162.741, 529.902 164.160 C 528.856 165.073, 528 166.761, 528 167.910 C 528 169.883, 528.531 170, 537.500 170 C 546.967 170, 547 169.991, 547 167.500 C 547 165.654, 546.469 165, 544.969 165 C 542.261 165, 541.847 163.565, 542.201 155.401 L 542.500 148.500 550.387 159.859 L 558.274 171.217 561.887 170.620 C 563.874 170.291, 566.288 170.017, 567.250 170.011 C 568.838 170.001, 569 168.618, 569 155.065 C 569 139.717, 569.817 135, 572.475 135 C 573.435 135, 574 134.074, 574 132.500 C 574 130.009, 573.967 130, 564.500 130 C 555.033 130, 555 130.009, 555 132.500 C 555 134.333, 555.533 135, 557 135 C 558.831 135, 558.997 135.655, 558.964 142.750 L 558.928 150.500 556.448 147.500 C 555.083 145.850, 551.837 141.243, 549.233 137.263 L 544.500 130.026 535.750 130.013 C 527.080 130, 527 130.023, 527 132.500 M 414.657 143.699 C 413.481 156.141, 413.807 161.832, 415.750 162.818 C 418.476 164.202, 423.474 162.351, 425.072 159.366 C 425.906 157.807, 426.500 153.881, 426.500 149.922 C 426.500 141.470, 424.196 137.663, 418.800 137.199 L 415.299 136.897 414.657 143.699 M 629.611 138.532 C 626.320 141.823, 626.248 155.677, 629.496 160.634 C 631.746 164.069, 637.855 163.689, 639.712 160 C 641.272 156.902, 641.379 146.386, 639.895 142.128 C 638.179 137.206, 632.813 135.329, 629.611 138.532 M 295 205.500 C 295 206.583, 296.111 207, 299 207 L 303 207 303 218.500 C 303 229.333, 303.116 230, 305 230 C 306.884 230, 307 229.333, 307 218.500 L 307 207 311 207 C 313.889 207, 315 206.583, 315 205.500 C 315 204.267, 313.222 204, 305 204 C 296.778 204, 295 204.267, 295 205.500 M 349 206 C 349 207.111, 349.667 208, 350.500 208 C 351.333 208, 352 207.111, 352 206 C 352 204.889, 351.333 204, 350.500 204 C 349.667 204, 349 204.889, 349 206 M 377 206 C 377 207.111, 377.667 208, 378.500 208 C 379.333 208, 380 207.111, 380 206 C 380 204.889, 379.333 204, 378.500 204 C 377.667 204, 377 204.889, 377 206 M 436 221 C 436 235.444, 436.225 238, 437.500 238 C 438.775 238, 439 235.444, 439 221 C 439 206.556, 438.775 204, 437.500 204 C 436.225 204, 436 206.556, 436 221 M 455 216.875 C 455 227.875, 455.243 230, 456.500 230 C 457.652 230, 458 228.722, 458 224.500 C 458 219.090, 458.048 219, 460.918 219 C 465.450 219, 466.672 219.814, 470.057 225.089 C 472.012 228.135, 473.928 230, 475.104 230 C 477.758 230, 477.518 229.195, 473.148 223.431 L 469.305 218.362 472.152 216.727 C 474.392 215.442, 475 214.377, 475 211.738 C 475 205.812, 473.342 204.712, 463.638 204.203 L 455 203.749 455 216.875 M 588.688 204.646 C 588.309 205.024, 588 210.883, 588 217.667 C 588 229.333, 588.108 230, 590 230 C 591.804 230, 592 229.333, 592 223.200 C 592 215.890, 592.970 214, 596.725 214 C 599.674 214, 601 217.277, 601 224.565 C 601 228.889, 601.328 230, 602.606 230 C 605.167 230, 604.226 214.370, 601.547 212.411 C 599.158 210.664, 594.396 210.571, 593.309 212.250 C 592.805 213.028, 592.311 211.830, 592 209.078 C 591.526 204.888, 590.208 203.125, 588.688 204.646 M 619.226 220.668 C 619.427 232.913, 619.832 237.446, 620.750 237.751 C 621.717 238.073, 622 234.305, 622 221.083 C 622 206.444, 621.782 204, 620.476 204 C 619.160 204, 618.989 206.281, 619.226 220.668 M 640.575 206.334 C 635.611 211.298, 637.637 215.068, 646.994 218.277 C 651.329 219.764, 653.589 221.095, 653.820 222.298 C 654.789 227.346, 645.736 228.976, 641.588 224.500 C 638.645 221.325, 636.626 221.201, 637.540 224.250 C 638.546 227.604, 640.300 229.053, 644.503 230.001 C 652.775 231.866, 659.708 226.371, 656.805 220.250 C 655.798 218.127, 654.052 217.033, 649.153 215.451 C 642.099 213.175, 640.077 211.066, 642.565 208.578 C 645.105 206.037, 650.658 206.548, 652.592 209.500 C 654.708 212.729, 657.406 212.904, 656.460 209.750 C 655.345 206.031, 653.405 204.745, 648.149 204.240 C 643.767 203.819, 642.831 204.078, 640.575 206.334 M 712 206 C 712 207.111, 712.667 208, 713.500 208 C 714.333 208, 715 207.111, 715 206 C 715 204.889, 714.333 204, 713.500 204 C 712.667 204, 712 204.889, 712 206 M 458.193 211.250 C 458.500 215.493, 458.507 215.500, 462.832 215.811 C 467.462 216.144, 472 214.034, 472 211.548 C 472 208.606, 468.953 207, 463.371 207 L 457.885 207 458.193 211.250 M 317 220.500 C 317 228.278, 317.272 230, 318.500 230 C 319.677 230, 320 228.625, 320 223.622 C 320 217.074, 321.330 214.549, 324.799 214.515 C 325.640 214.507, 326.516 213.938, 326.747 213.251 C 327.356 211.436, 324.051 210.487, 321.868 211.851 C 320.716 212.570, 320 212.630, 320 212.008 C 320 211.454, 319.325 211, 318.500 211 C 317.272 211, 317 212.722, 317 220.500 M 331.223 212.557 C 330 213.413, 329 214.763, 329 215.557 C 329 217.494, 331.632 217.403, 332.385 215.439 C 332.814 214.322, 334.052 213.967, 336.742 214.189 C 339.711 214.435, 340.500 214.914, 340.500 216.472 C 340.500 218.022, 339.559 218.605, 336.110 219.194 C 333.695 219.606, 330.883 220.701, 329.860 221.627 C 327.629 223.646, 327.437 227.288, 329.473 228.978 C 331.334 230.522, 337.610 230.568, 339.438 229.051 C 340.387 228.264, 341.025 228.232, 341.470 228.951 C 341.826 229.528, 342.663 230, 343.328 230 C 345.180 230, 344.235 214.999, 342.241 212.750 C 340.292 210.551, 334.238 210.445, 331.223 212.557 M 349 220.500 C 349 228.278, 349.272 230, 350.500 230 C 351.728 230, 352 228.278, 352 220.500 C 352 212.722, 351.728 211, 350.500 211 C 349.272 211, 349 212.722, 349 220.500 M 357 220.500 C 357 228.278, 357.272 230, 358.500 230 C 359.668 230, 360 228.659, 360 223.934 C 360 216.795, 361.220 214, 364.335 214 C 368.027 214, 369 215.919, 369 223.200 C 369 228.578, 369.314 230, 370.500 230 C 372.920 230, 372.634 214.883, 370.171 212.655 C 368.088 210.770, 364.766 210.520, 361.934 212.035 C 360.601 212.749, 360 212.749, 360 212.035 C 360 211.466, 359.325 211, 358.500 211 C 357.272 211, 357 212.722, 357 220.500 M 377 220.500 C 377 228.278, 377.272 230, 378.500 230 C 379.728 230, 380 228.278, 380 220.500 C 380 212.722, 379.728 211, 378.500 211 C 377.272 211, 377 212.722, 377 220.500 M 385 220.500 C 385 228.278, 385.272 230, 386.500 230 C 387.678 230, 388 228.619, 388 223.571 C 388 216.824, 389.437 214, 392.871 214 C 396.006 214, 397 216.215, 397 223.200 C 397 228.578, 397.314 230, 398.500 230 C 400.920 230, 400.634 214.883, 398.171 212.655 C 396.088 210.770, 392.766 210.520, 389.934 212.035 C 388.601 212.749, 388 212.749, 388 212.035 C 388 211.466, 387.325 211, 386.500 211 C 385.272 211, 385 212.722, 385 220.500 M 406.982 212.814 C 405.361 214.126, 404.606 216.040, 404.251 219.739 C 403.818 224.247, 404.064 225.155, 406.334 227.425 C 409.094 230.185, 413.740 230.860, 415.800 228.800 C 416.733 227.867, 417 228.156, 417 230.100 C 417 231.475, 416.460 233.140, 415.800 233.800 C 414.069 235.531, 409.254 235.276, 408.202 233.397 C 407.709 232.516, 406.509 231.953, 405.536 232.147 C 403.889 232.476, 403.905 232.670, 405.777 234.977 C 408.320 238.113, 414.764 238.428, 417.920 235.572 C 419.794 233.877, 420 232.565, 420 222.345 C 420 211.342, 419.597 209.803, 417.313 212.087 C 416.530 212.870, 416.038 212.870, 415.554 212.087 C 414.502 210.385, 409.453 210.812, 406.982 212.814 M 482.749 212.982 C 477.802 216.874, 478.730 227.827, 484.154 229.549 C 489.628 231.286, 496 229.025, 496 225.345 C 496 223.358, 493.691 223.712, 491.732 226 C 489.598 228.493, 486.817 228.560, 484.655 226.171 C 481.717 222.925, 482.671 222.106, 489.750 221.796 L 496.500 221.500 496.215 218.500 C 495.608 212.121, 487.874 208.952, 482.749 212.982 M 502.223 212.557 C 499.794 214.257, 499.269 218.159, 501.250 219.774 C 501.938 220.335, 504.434 221.367, 506.797 222.069 C 510.263 223.098, 511.036 223.747, 510.797 225.422 C 510.375 228.373, 505.646 228.778, 503.321 226.062 C 501.523 223.963, 499 223.278, 499 224.889 C 499 225.378, 499.819 226.790, 500.820 228.026 C 502.203 229.733, 503.686 230.273, 507 230.273 C 510.314 230.273, 511.797 229.733, 513.180 228.026 C 514.181 226.790, 515 225.223, 515 224.544 C 515 222.635, 511.848 220.226, 507.474 218.793 C 505.194 218.046, 503.500 216.854, 503.500 215.996 C 503.500 213.892, 508.855 213.430, 510.335 215.407 C 511.174 216.527, 511.920 216.683, 513 215.961 C 514.280 215.106, 514.153 214.669, 512.139 212.980 C 509.305 210.603, 505.259 210.430, 502.223 212.557 M 521.299 212.503 C 518.076 214.761, 516.582 220.202, 518.003 224.508 C 519.342 228.565, 521.834 230.200, 526.682 230.200 C 530.236 230.200, 534 227.703, 534 225.345 C 534 223.358, 531.691 223.712, 529.732 226 C 527.598 228.493, 524.817 228.560, 522.655 226.171 C 519.717 222.925, 520.671 222.106, 527.750 221.796 L 534.500 221.500 534.215 218.500 C 533.642 212.485, 526.235 209.046, 521.299 212.503 M 542 211.694 C 540.346 212.285, 538 214.923, 538 216.191 C 538 217.573, 540.689 217.079, 542.042 215.449 C 543.954 213.146, 549.418 213.929, 549.795 216.560 C 550.047 218.324, 549.329 218.756, 544.811 219.560 C 540.689 220.294, 539.263 221.046, 538.304 222.991 C 535.851 227.965, 540.976 231.682, 547.294 229.510 C 549.333 228.809, 551 228.633, 551 229.118 C 551 229.603, 551.723 230, 552.606 230 C 555.167 230, 554.226 214.370, 551.547 212.411 C 549.637 211.014, 544.898 210.658, 542 211.694 M 558.667 211.667 C 558.300 212.033, 558 216.308, 558 221.167 C 558 229.333, 558.151 230, 560 230 C 561.809 230, 562 229.333, 562 223.035 C 562 217.412, 562.337 215.897, 563.750 215.170 C 564.712 214.675, 566.063 214.472, 566.750 214.718 C 567.493 214.985, 568 214.322, 568 213.083 C 568 210.794, 566.019 210.384, 562.934 212.035 C 561.601 212.749, 561 212.749, 561 212.035 C 561 210.868, 559.675 210.658, 558.667 211.667 M 572.455 213.455 C 570.558 215.351, 570 216.958, 570 220.520 C 570 226.344, 571.166 228.514, 575.016 229.856 C 578.715 231.145, 582.156 230.043, 584.390 226.854 C 586.887 223.289, 584.426 221.736, 581.850 225.250 C 579.586 228.337, 576.913 228.770, 574.571 226.429 C 572.786 224.643, 572.489 218.824, 574.035 215.934 C 575.297 213.576, 580.780 213.263, 581.638 215.500 C 582.374 217.418, 585 217.462, 585 215.557 C 585 213.487, 581.034 211, 577.732 211 C 576.068 211, 573.901 212.008, 572.455 213.455 M 663.982 212.814 C 662.374 214.116, 661.607 216.038, 661.261 219.630 C 660.854 223.874, 661.139 225.033, 663.140 227.262 C 665.431 229.813, 667.065 230.355, 671.750 230.115 C 674.065 229.997, 678 226.776, 678 225 C 678 223.214, 674.516 223.945, 673.232 226 C 672.545 227.100, 671.087 228, 669.992 228 C 667.915 228, 664 224.733, 664 223 C 664 222.429, 667 222, 671 222 C 677.390 222, 678 221.821, 678 219.950 C 678 217.118, 675.410 212.371, 673.455 211.621 C 670.437 210.463, 666.231 210.993, 663.982 212.814 M 682 220.500 C 682 228.278, 682.272 230, 683.500 230 C 684.678 230, 685 228.619, 685 223.571 C 685 217.098, 686.841 213.166, 689.192 214.619 C 689.760 214.969, 690.599 214.649, 691.057 213.907 C 692.213 212.037, 692.504 212.502, 695.824 221.530 C 699.810 232.364, 701.227 232.231, 705.654 220.604 C 707.517 215.711, 708.826 211.493, 708.563 211.230 C 707.303 209.969, 705.252 212.219, 704.082 216.146 C 703.368 218.541, 702.229 221.567, 701.551 222.871 C 700.375 225.131, 700.197 224.920, 697.779 218.371 C 695.282 211.612, 695.178 211.496, 691.433 211.283 C 689.339 211.164, 687.075 211.523, 686.402 212.081 C 685.571 212.771, 684.970 212.761, 684.530 212.049 C 682.782 209.220, 682 211.833, 682 220.500 M 712 220.500 C 712 228.278, 712.272 230, 713.500 230 C 714.728 230, 715 228.278, 715 220.500 C 715 212.722, 714.728 211, 713.500 211 C 712.272 211, 712 212.722, 712 220.500 M 721.982 212.814 C 720.374 214.116, 719.607 216.038, 719.261 219.630 C 718.854 223.874, 719.139 225.033, 721.140 227.262 C 723.733 230.149, 726.083 230.778, 730.221 229.691 C 733.070 228.943, 735.524 225.657, 734.487 223.979 C 733.509 222.397, 732.182 222.850, 731.501 224.998 C 730.497 228.160, 726.039 228.766, 723.831 226.040 C 718.764 219.782, 725.331 210.370, 731.113 215.603 C 733.997 218.212, 735.416 216.799, 732.999 213.726 C 730.424 210.453, 725.410 210.037, 721.982 212.814 M 739.982 212.814 C 738.374 214.116, 737.607 216.038, 737.261 219.630 C 736.854 223.874, 737.139 225.033, 739.140 227.262 C 741.431 229.813, 743.065 230.355, 747.750 230.115 C 750.065 229.997, 754 226.776, 754 225 C 754 223.214, 750.516 223.945, 749.232 226 C 748.545 227.100, 747.087 228, 745.992 228 C 743.915 228, 740 224.733, 740 223 C 740 222.429, 743 222, 747 222 C 753.390 222, 754 221.821, 754 219.950 C 754 217.118, 751.410 212.371, 749.455 211.621 C 746.437 210.463, 742.231 210.993, 739.982 212.814 M 759 213 C 757.900 214.100, 757 215.642, 757 216.427 C 757 218.220, 761.710 222, 763.944 222 C 764.864 222, 766.474 222.626, 767.521 223.392 C 769.138 224.574, 769.224 225.025, 768.090 226.392 C 766.242 228.618, 762.270 228.405, 760.768 226 C 759.323 223.687, 757 223.335, 757 225.429 C 757 230.059, 766.062 231.990, 770.250 228.252 C 772.286 226.435, 772.554 222.684, 770.750 221.253 C 770.063 220.707, 767.700 219.693, 765.500 218.999 C 760.201 217.328, 759.995 217.177, 760.651 215.468 C 761.444 213.400, 766.677 213.604, 767.888 215.750 C 769.109 217.914, 771.383 216.162, 770.464 213.766 C 769.237 210.570, 761.918 210.082, 759 213 M 408.655 215.829 C 406.782 217.899, 406.494 222.186, 408.035 225.066 C 409.208 227.258, 413.899 227.701, 415.800 225.800 C 417.354 224.246, 417.354 216.754, 415.800 215.200 C 414.033 213.433, 410.546 213.740, 408.655 215.829 M 484.200 215.200 C 481.645 217.755, 482.889 219, 488 219 C 491.436 219, 493 218.593, 493 217.700 C 493 215.620, 490.810 214, 488 214 C 486.570 214, 484.860 214.540, 484.200 215.200 M 522.200 215.200 C 519.645 217.755, 520.889 219, 526 219 C 529.436 219, 531 218.593, 531 217.700 C 531 215.620, 528.810 214, 526 214 C 524.570 214, 522.860 214.540, 522.200 215.200 M 665.698 215.781 C 663.108 218.643, 663.544 219, 669.622 219 C 675.226 219, 675.239 218.993, 673.759 216.750 C 671.835 213.836, 667.888 213.361, 665.698 215.781 M 742.320 215.199 C 739.569 218.746, 739.786 219, 745.563 219 C 751.228 219, 751.240 218.994, 749.759 216.750 C 748.053 214.167, 743.807 213.282, 742.320 215.199 M 335.823 221.709 C 332.147 222.272, 330.355 224.517, 332 226.500 C 333.701 228.549, 337.341 228.386, 339.345 226.171 C 341.292 224.020, 341.541 220.935, 339.750 221.150 C 339.063 221.232, 337.295 221.484, 335.823 221.709 M 547.500 221.491 C 546.950 221.675, 545.233 222.105, 543.685 222.448 C 541.490 222.934, 540.939 223.558, 541.185 225.285 C 541.836 229.863, 550 227.603, 550 222.845 C 550 221.047, 549.555 220.806, 547.500 221.491" stroke="none" fill="#0a0a0a" fill-rule="evenodd"/><path d="M 0 138.501 L 0 277.002 399.250 276.751 L 798.500 276.500 798.754 138.250 L 799.007 -0 399.504 -0 L 0 0 0 138.501 M 0.486 139 C 0.486 215.175, 0.605 246.337, 0.750 208.250 C 0.895 170.162, 0.895 107.837, 0.750 69.750 C 0.605 31.662, 0.486 62.825, 0.486 139 M 80.500 35.884 C 73.655 37.668, 68.713 41.554, 65.728 47.500 C 64.900 49.150, 60.945 66.700, 56.939 86.500 C 52.934 106.300, 49.043 123.229, 48.292 124.119 C 47.541 125.010, 44.975 126.006, 42.589 126.333 C 35.909 127.248, 20.090 132.643, 14.313 135.976 C 1.124 143.585, -0.031 153.919, 11.467 161.430 C 31.048 174.222, 90.829 182.106, 157.500 180.691 C 186.648 180.072, 200.925 179.025, 222 175.959 C 271.150 168.810, 291.043 156.508, 277.814 141.441 C 273.583 136.622, 260.714 130.616, 248.069 127.560 C 242.333 126.173, 237.226 124.626, 236.721 124.121 C 236.216 123.616, 232.470 107.070, 228.395 87.352 C 224.320 67.633, 220.508 50.048, 219.923 48.274 C 218.321 43.411, 210.853 37.349, 204.889 36.070 C 198.425 34.683, 178.598 34.693, 171.799 36.085 C 166.863 37.097, 165.773 37.918, 155.884 48.085 C 147.528 56.677, 144.692 59, 142.557 59 C 139.711 59, 139.284 58.629, 127.787 46.191 C 118.684 36.343, 116.873 35.673, 98.500 35.359 C 90.250 35.217, 82.150 35.453, 80.500 35.884 M 80.825 51.038 C 78.443 52.428, 77.964 54.322, 69.475 95.893 C 65.275 116.459, 61.316 134.122, 60.677 135.145 C 59.365 137.246, 55.799 138.526, 48.500 139.516 C 38.744 140.839, 20 147.700, 20 149.948 C 20 152.110, 38.463 157.437, 58 160.912 C 82.817 165.327, 99.191 166.399, 142 166.411 C 173.777 166.421, 185.946 166.048, 198.500 164.682 C 227.332 161.542, 253.706 156.231, 262.343 151.825 C 266.062 149.928, 266.245 149.652, 264.591 148.443 C 261.324 146.054, 248.674 141.961, 237.607 139.713 C 228.511 137.865, 226.418 137.088, 224.924 135 C 223.770 133.388, 220.235 118.468, 214.974 93 C 209.940 68.630, 206.216 52.830, 205.252 51.750 C 203.894 50.228, 201.703 50, 188.455 50 L 173.220 50 164.101 59.890 C 154.025 70.819, 150.054 73.286, 142.538 73.286 C 135.202 73.286, 130.753 70.493, 120.681 59.567 L 111.862 50 97.181 50.030 C 89.106 50.047, 81.746 50.501, 80.825 51.038 M 319.535 117.729 C 316.254 117.940, 313.045 118.548, 312.404 119.080 C 311.763 119.612, 308.212 129.149, 304.512 140.273 C 299.756 154.575, 297.084 161.145, 295.393 162.702 C 294.077 163.913, 293 166.023, 293 167.390 C 293 169.867, 293.035 169.876, 303.991 170.188 C 315.509 170.515, 316 170.340, 316 165.918 C 316 164.469, 315.292 164, 313.107 164 C 309.687 164, 309.006 162.658, 310.187 158.250 C 311.103 154.828, 312.613 154.393, 321.500 154.989 C 325.189 155.237, 324.964 155, 325.673 159.375 C 326.232 162.815, 326.101 163.030, 323.077 163.635 C 320.225 164.205, 319.925 164.595, 320.197 167.386 C 320.440 169.885, 320.944 170.486, 322.750 170.429 C 323.988 170.389, 329.725 170.277, 335.500 170.179 L 346 170 346 167.067 C 346 165.069, 345.397 163.944, 344.108 163.534 C 341.528 162.715, 340.482 159.851, 334.475 137.151 C 330.075 120.526, 328.984 117.488, 327.387 117.422 C 326.349 117.380, 322.816 117.518, 319.535 117.729 M 674.500 117.976 C 669.173 119.346, 666.559 120.706, 663.632 123.632 C 658.827 128.438, 657.645 134.479, 660.449 139.901 C 662.131 143.155, 664.672 145.007, 674.988 150.500 C 680.786 153.587, 682.579 155.058, 682.845 156.944 C 683.290 160.095, 680.696 162, 675.964 162 C 671.691 162, 669 159.578, 669 155.730 C 669 152.425, 667.718 151.643, 663.573 152.420 C 660.334 153.028, 660.260 153.162, 659.322 160.089 L 658.368 167.139 661.434 168.819 C 663.728 170.077, 667.016 170.500, 674.500 170.500 C 683.324 170.500, 685.019 170.206, 688.911 168 C 694.584 164.785, 697.102 161.308, 697.698 155.864 C 698.438 149.116, 695.445 145.546, 683.981 139.500 C 676.689 135.654, 674.425 133.968, 674.173 132.195 C 673.693 128.806, 675.741 127, 680.066 127 C 684.267 127, 687 129.625, 687 133.660 C 687 135.655, 687.371 135.817, 690.750 135.296 C 692.813 134.977, 694.628 134.615, 694.784 134.491 C 695.439 133.970, 697.054 121.584, 696.616 120.441 C 695.600 117.793, 681.378 116.208, 674.500 117.976 M 498.384 119.442 C 497.376 122.069, 498.477 124.404, 501.005 125 L 503.500 125.588 503.796 141.044 C 504.158 160.002, 503.748 162.774, 500.456 163.600 C 498.432 164.108, 498 164.834, 498 167.725 C 498 170.875, 498.230 171.172, 500.250 170.630 C 501.488 170.299, 507.113 170.021, 512.750 170.014 L 523 170 523 167.066 C 523 164.610, 522.553 164.081, 520.250 163.816 L 517.500 163.500 517.189 151 C 517.018 144.125, 517.169 135.660, 517.525 132.189 C 518.077 126.809, 518.528 125.717, 520.586 124.779 C 522.313 123.992, 523 122.871, 523 120.839 L 523 118 510.969 118 C 501.413 118, 498.823 118.297, 498.384 119.442 M 348 130.024 C 348 130.471, 347.739 131.518, 347.419 132.351 C 347.030 133.365, 347.904 134.416, 350.065 135.534 L 353.293 137.203 352.709 150.351 C 352.185 162.166, 351.916 163.639, 350.063 164.872 C 347.549 166.544, 347.129 171.548, 349.582 170.607 C 350.452 170.273, 354.952 170, 359.582 170 C 367.793 170, 368 169.941, 368 167.608 C 368 165.891, 367.295 165.040, 365.500 164.589 C 363.104 163.988, 363 163.642, 363 156.258 L 363 148.553 368.250 156.098 C 371.137 160.247, 374.625 165.295, 376 167.314 C 378.082 170.372, 379.086 170.985, 382 170.980 C 390.295 170.963, 390 171.555, 390 154.948 C 390 139.609, 390.818 135, 393.542 135 C 394.688 135, 395.044 134.230, 394.816 132.250 L 394.500 129.500 385 129.500 L 375.500 129.500 375.184 132.250 C 374.934 134.422, 375.279 135, 376.827 135 C 377.904 135, 379.059 135.712, 379.393 136.582 C 380.371 139.131, 380.099 150.179, 379.074 149.546 C 378.565 149.231, 375.152 144.544, 371.490 139.131 L 364.832 129.288 356.416 129.249 C 351.787 129.228, 348 129.576, 348 130.024 M 398.582 130.647 C 397.512 133.436, 397.983 135, 399.893 135 C 402.593 135, 403.002 136.828, 402.986 148.832 C 402.970 161.225, 402.480 163.713, 399.892 164.534 C 398.655 164.927, 398 166.064, 398 167.817 L 398.001 170.500 411.250 170.422 C 425.499 170.339, 428.692 169.582, 433.342 165.186 C 437.959 160.821, 440.248 155.329, 440.312 148.458 C 440.388 140.371, 437.824 135.344, 431.916 132 C 427.838 129.691, 426.417 129.486, 413.332 129.315 C 401.474 129.160, 399.069 129.377, 398.582 130.647 M 439.478 131.945 C 439.019 133.774, 439.447 134.838, 441.182 136.172 C 442.457 137.153, 443.767 137.966, 444.093 137.978 C 444.419 137.990, 447.037 142.245, 449.911 147.433 C 456.234 158.846, 456.552 162.896, 451.250 164.457 C 448.542 165.254, 448 165.902, 448 168.338 C 448 171.160, 448.130 171.240, 451.750 170.642 C 453.813 170.301, 459.663 170.017, 464.750 170.011 L 474 170 474 167.063 C 474 164.481, 473.608 164.089, 470.750 163.813 C 467.997 163.548, 467.449 163.057, 467.170 160.605 C 466.736 156.810, 473.077 143.958, 478.037 138.574 C 480.102 136.333, 481.951 133.390, 482.146 132.034 L 482.500 129.569 474 129.880 C 469.325 130.051, 465.163 130.400, 464.750 130.655 C 463.375 131.504, 463.978 135, 465.500 135 C 466.325 135, 467 135.393, 467 135.873 C 467 137.038, 463.018 146, 462.500 146 C 462.276 146, 461.152 143.871, 460.001 141.270 C 458.202 137.203, 458.112 136.391, 459.356 135.482 C 460.151 134.900, 460.959 133.316, 461.151 131.962 L 461.500 129.500 450.796 129.500 C 440.277 129.500, 440.082 129.542, 439.478 131.945 M 527 131.960 C 527 134.137, 527.572 134.927, 529.500 135.411 L 532 136.038 532 149.019 C 532 160.697, 531.798 162.202, 529.986 164.014 C 527.960 166.040, 526.852 169.820, 528.250 169.937 C 528.663 169.972, 533.050 170, 538 170 L 547 170 547 167.031 C 547 165.079, 546.572 164.220, 545.750 164.521 C 542.818 165.595, 541.903 163.392, 542.203 155.980 L 542.500 148.635 550 159.779 C 557.144 170.394, 557.666 170.924, 561 170.948 C 568.663 171.002, 569 170.627, 569 162.037 C 569 157.786, 569.292 150.197, 569.648 145.174 C 570.193 137.498, 570.592 135.947, 572.148 135.453 C 573.370 135.065, 574 133.912, 574 132.062 L 574 129.259 564.500 129.227 C 559.275 129.209, 554.994 129.489, 554.986 129.847 C 554.979 130.206, 554.701 131.512, 554.370 132.750 C 553.881 134.572, 554.175 135, 555.915 135 C 558.719 135, 559.165 136.405, 558.801 144.091 L 558.500 150.472 551.289 139.867 L 544.078 129.263 535.539 129.200 L 527 129.137 527 131.960 M 577.712 131.724 C 577.357 133.581, 577.803 134.355, 579.625 135.047 C 581.956 135.934, 582 136.189, 582 148.904 C 582 159.346, 581.695 162.162, 580.429 163.429 C 579.564 164.293, 578.439 165, 577.929 165 C 577.418 165, 577 166.406, 577 168.125 C 577 171.092, 577.158 171.218, 580.125 170.625 C 581.844 170.281, 587.244 170, 592.125 170 L 601 170 601 166.500 C 601 163.167, 600.833 163, 597.500 163 C 594.093 163, 594 162.895, 594 159.067 C 594 154.518, 595.499 153.633, 602.295 154.168 L 606.500 154.500 606.810 150.750 L 607.121 147 600.560 147 C 594.067 147, 594 146.972, 594.014 144.250 C 594.042 138.468, 595.023 136.869, 598.341 137.196 C 600.675 137.426, 601.568 138.106, 602.027 140 C 602.564 142.216, 603.079 142.463, 606.557 142.177 C 608.714 141.999, 610.546 141.774, 610.627 141.677 C 610.709 141.580, 611.092 138.716, 611.478 135.313 L 612.182 129.125 595.178 129.215 L 578.175 129.304 577.712 131.724 M 624.384 130.913 C 612.506 136.307, 609.174 156.107, 618.564 165.497 C 626.313 173.246, 640.423 172.840, 648.632 164.632 C 658.740 154.523, 656.337 135.381, 644.329 130.364 C 639.593 128.385, 629.328 128.668, 624.384 130.913 M 703.495 129.839 C 702.163 131.170, 703.169 134.811, 705 135.290 C 706.876 135.780, 707 136.654, 707 149.383 C 707 162.755, 706.963 162.978, 704.500 164.592 C 703.125 165.493, 702 167.191, 702 168.365 C 701.999 170.471, 702.236 170.497, 719.168 170.281 C 728.612 170.161, 736.657 169.711, 737.048 169.281 C 737.438 168.852, 738.059 165.688, 738.428 162.250 L 739.099 156 735.018 156 C 732.004 156, 730.796 156.458, 730.396 157.750 C 729.124 161.869, 728.259 162.500, 723.891 162.500 L 719.500 162.500 719.194 158.283 C 718.917 154.458, 719.132 154.005, 721.505 153.410 C 722.943 153.048, 725.863 152.987, 727.993 153.272 C 732.157 153.831, 733 153.013, 733 148.418 C 733 146.099, 732.723 146, 726.243 146 L 719.486 146 719.848 141.448 L 720.210 136.895 724.355 137.198 C 728.089 137.470, 728.532 137.784, 728.828 140.365 C 729.144 143.130, 729.300 143.208, 733.290 142.570 C 735.564 142.206, 737.491 141.817, 737.572 141.704 C 737.654 141.592, 737.999 138.704, 738.341 135.287 L 738.962 129.074 721.476 129.209 C 711.858 129.283, 703.767 129.566, 703.495 129.839 M 755.625 130.469 C 750.653 132.241, 745.359 137.381, 743.876 141.876 C 742.372 146.434, 742.392 154.626, 743.918 159.252 C 746.110 165.893, 754.187 170.979, 762.566 170.994 C 767.565 171.004, 777.442 168.897, 778.235 167.653 C 778.639 167.019, 778.976 163.648, 778.985 160.162 L 779 153.824 774.750 154.526 C 772.413 154.913, 770.500 155.290, 770.500 155.364 C 770.500 155.439, 769.808 156.850, 768.962 158.500 C 767.715 160.931, 766.787 161.500, 764.070 161.500 C 758.931 161.500, 756.821 157.983, 756.767 149.327 C 756.717 141.392, 757.971 138.296, 761.603 137.385 C 765.670 136.364, 769 138.432, 769 141.979 C 769 144.891, 769.162 145, 773.481 145 C 778.512 145, 778.745 144.616, 779.233 135.531 C 779.490 130.742, 779.391 130.538, 776.500 129.899 C 771.203 128.729, 759.618 129.046, 755.625 130.469 M 316.097 137.905 C 314.944 141.703, 314 145.078, 314 145.405 C 314 145.732, 316.077 146, 318.617 146 C 322.914 146, 323.192 145.844, 322.639 143.750 C 322.312 142.512, 321.512 139.137, 320.863 136.250 C 320.213 133.363, 319.347 131, 318.938 131 C 318.529 131, 317.251 134.107, 316.097 137.905 M 414.689 148.512 C 414.350 154.844, 414.329 160.694, 414.643 161.512 C 415.488 163.715, 421.328 163.400, 423.467 161.036 C 427.635 156.431, 427.324 142.300, 422.977 138.781 C 421.768 137.801, 419.547 137, 418.042 137 L 415.306 137 414.689 148.512 M 629.405 139.106 C 627.870 140.803, 627.509 142.699, 627.548 148.856 C 627.619 160.263, 630.165 164.179, 636.479 162.595 C 640.546 161.574, 642.285 152.168, 639.957 143.784 C 638.081 137.028, 633.230 134.878, 629.405 139.106 M 47.441 198.418 C 45.618 199.750, 45.482 201.444, 45.204 226.251 C 44.928 250.962, 45.031 252.817, 46.809 255.012 C 48.494 257.094, 52.823 258.182, 85.105 264.640 C 113.926 270.406, 122.038 271.710, 124.086 270.907 C 125.558 270.330, 129.844 265.610, 134.039 259.947 C 138.092 254.476, 141.918 250, 142.541 250 C 143.165 250, 146.995 254.472, 151.053 259.938 C 155.111 265.404, 159.468 270.348, 160.734 270.925 C 162.547 271.751, 170.638 270.467, 198.760 264.893 C 233.377 258.031, 237.674 256.938, 239.235 254.600 C 239.639 253.995, 239.976 241.788, 239.985 227.473 C 240.004 195.057, 240.545 196.428, 228.096 197.379 C 223.368 197.740, 213.650 198.739, 206.500 199.599 C 197.848 200.639, 180.456 201.342, 154.500 201.699 C 115.184 202.240, 95.735 201.503, 68.655 198.449 C 52.663 196.645, 49.874 196.641, 47.441 198.418 M 295 206 C 295 207.667, 295.667 208, 299 208 L 303 208 303 219 C 303 229.333, 303.121 230, 305 230 C 306.879 230, 307 229.333, 307 219 L 307 208 311 208 C 314.333 208, 315 207.667, 315 206 C 315 204.133, 314.333 204, 305 204 C 295.667 204, 295 204.133, 295 206 M 349 206 C 349 207.111, 349.667 208, 350.500 208 C 351.333 208, 352 207.111, 352 206 C 352 204.889, 351.333 204, 350.500 204 C 349.667 204, 349 204.889, 349 206 M 377 206 C 377 207.111, 377.667 208, 378.500 208 C 379.333 208, 380 207.111, 380 206 C 380 204.889, 379.333 204, 378.500 204 C 377.667 204, 377 204.889, 377 206 M 436 221 C 436 235.444, 436.225 238, 437.500 238 C 438.775 238, 439 235.444, 439 221 C 439 206.556, 438.775 204, 437.500 204 C 436.225 204, 436 206.556, 436 221 M 455 217 C 455 229.333, 455.103 230, 457 230 C 458.760 230, 459 229.333, 459 224.437 L 459 218.873 462.233 219.187 C 464.804 219.436, 466.265 220.574, 469.373 224.750 C 472.215 228.568, 473.943 230, 475.709 230 L 478.136 230 475.907 226.750 C 474.681 224.963, 472.541 222.262, 471.152 220.750 C 469.173 218.595, 468.975 218, 470.240 218 C 472.274 218, 476 213.355, 476 210.820 C 476 209.769, 474.895 207.805, 473.545 206.455 C 471.346 204.255, 470.254 204, 463.045 204 L 455 204 455 217 M 588 217 C 588 229.333, 588.103 230, 590 230 C 591.793 230, 592 229.333, 592 223.571 C 592 216.499, 593.626 213.662, 597.375 214.197 C 599.303 214.472, 599.527 215.219, 599.792 222.250 C 600.053 229.178, 600.292 230, 602.042 230 C 603.807 230, 604 229.281, 604 222.723 C 604 212.940, 602.427 210.579, 596.363 211.263 L 592 211.754 592 207.877 C 592 204.667, 591.656 204, 590 204 C 588.103 204, 588 204.667, 588 217 M 619 221 C 619 235.444, 619.225 238, 620.500 238 C 621.775 238, 622 235.444, 622 221 C 622 206.556, 621.775 204, 620.500 204 C 619.225 204, 619 206.556, 619 221 M 640.174 206.314 C 635.614 211.168, 638.743 216.979, 646.723 218.476 C 651.919 219.451, 654 220.745, 654 223 C 654 225.354, 651.163 227, 647.105 227 C 644.118 227, 643.278 226.425, 640.533 222.500 C 639.428 220.920, 638.874 220.757, 637.894 221.723 C 636.931 222.673, 636.916 223.520, 637.829 225.525 C 639.350 228.863, 645.305 231.371, 649.952 230.632 C 653.830 230.015, 658 226.060, 658 223 C 658 219.719, 653.773 216.235, 647.750 214.551 C 641.860 212.905, 640.455 210.945, 643.200 208.200 C 645.651 205.749, 653 207.500, 653 210.535 C 653 211.341, 653.900 212, 655 212 C 657.736 212, 657.526 209.435, 654.545 206.455 C 651.118 203.027, 643.334 202.951, 640.174 206.314 M 712 206 C 712 207.111, 712.667 208, 713.500 208 C 714.333 208, 715 207.111, 715 206 C 715 204.889, 714.333 204, 713.500 204 C 712.667 204, 712 204.889, 712 206 M 459 211 L 459 215 464.465 215 C 469.059 215, 470.116 214.652, 471.098 212.817 C 472.779 209.676, 469.233 207, 463.389 207 L 459 207 459 211 M 317 220.500 C 317 228.278, 317.272 230, 318.500 230 C 319.661 230, 320 228.688, 320 224.191 C 320 218.016, 321.261 215.384, 324.489 214.823 C 327.489 214.301, 327.735 211, 324.773 211 C 323.468 211, 321.860 211.540, 321.200 212.200 C 320.267 213.133, 320 213.133, 320 212.200 C 320 211.540, 319.325 211, 318.500 211 C 317.272 211, 317 212.722, 317 220.500 M 329.977 213.750 C 328.060 216.182, 328.002 216.539, 329.479 216.838 C 330.397 217.023, 331.938 216.461, 332.903 215.588 C 335.123 213.578, 338.381 213.549, 340.020 215.524 C 341.688 217.535, 340.998 218.072, 335.403 219.117 C 329.560 220.209, 328 221.469, 328 225.099 C 328 228.824, 331.855 231.526, 335.752 230.531 C 337.263 230.145, 340.016 229.872, 341.869 229.924 C 344.895 230.008, 345.176 229.788, 344.633 227.759 C 344.300 226.516, 344.021 222.945, 344.014 219.821 C 343.997 212.781, 342.480 211, 336.501 211 C 332.941 211, 331.749 211.503, 329.977 213.750 M 349 220.500 C 349 228.278, 349.272 230, 350.500 230 C 351.728 230, 352 228.278, 352 220.500 C 352 212.722, 351.728 211, 350.500 211 C 349.272 211, 349 212.722, 349 220.500 M 357 220.500 C 357 228.278, 357.272 230, 358.500 230 C 359.660 230, 360 228.691, 360 224.223 C 360 217.978, 361.890 214, 364.857 214 C 368.007 214, 369 216.206, 369 223.200 C 369 228.578, 369.314 230, 370.500 230 C 372.920 230, 372.634 214.883, 370.171 212.655 C 368.040 210.726, 362.933 210.467, 361.200 212.200 C 360.267 213.133, 360 213.133, 360 212.200 C 360 211.540, 359.325 211, 358.500 211 C 357.272 211, 357 212.722, 357 220.500 M 377 220.500 C 377 228.278, 377.272 230, 378.500 230 C 379.728 230, 380 228.278, 380 220.500 C 380 212.722, 379.728 211, 378.500 211 C 377.272 211, 377 212.722, 377 220.500 M 385 220.500 C 385 228.278, 385.272 230, 386.500 230 C 387.641 230, 388.004 228.743, 388.015 224.750 C 388.031 218.801, 389.711 214.679, 392.323 214.176 C 395.767 213.513, 397 215.871, 397 223.122 C 397 228.569, 397.312 230, 398.500 230 C 400.718 230, 400.656 214.799, 398.429 212.571 C 396.573 210.716, 390.912 210.488, 389.200 212.200 C 388.267 213.133, 388 213.133, 388 212.200 C 388 211.540, 387.325 211, 386.500 211 C 385.272 211, 385 212.722, 385 220.500 M 406.084 213.620 C 403.246 217.229, 403.282 223.817, 406.161 227.477 C 408.069 229.904, 408.827 230.167, 412.661 229.735 C 417.371 229.204, 418.348 230.509, 415.429 233.429 C 413.444 235.413, 410.614 235.444, 409 233.500 C 407.695 231.927, 404 231.416, 404 232.809 C 404 234.992, 406.981 237.188, 410.604 237.674 C 413.923 238.119, 415.150 237.775, 417.520 235.736 C 420.359 233.294, 420.402 233.100, 420.451 222.391 L 420.500 211.524 414.334 211.247 C 408.695 210.994, 407.991 211.196, 406.084 213.620 M 481.924 213.581 C 478.683 217.031, 478.483 224.927, 481.560 228.004 C 484.732 231.177, 489.932 231.628, 493.250 229.018 C 496.117 226.763, 496.927 224, 494.722 224 C 494.019 224, 492.674 224.900, 491.732 226 C 489.672 228.406, 488.171 228.508, 485.223 226.443 C 480.861 223.388, 482.393 222, 490.125 222 L 497.250 222 496.610 218.798 C 495.090 211.200, 486.896 208.288, 481.924 213.581 M 502.400 211.765 C 501.795 212.169, 500.765 213.516, 500.111 214.757 C 499.085 216.705, 499.263 217.354, 501.416 219.507 C 502.787 220.878, 504.744 222, 505.763 222 C 506.783 222, 508.474 222.626, 509.521 223.392 C 511.138 224.574, 511.224 225.025, 510.090 226.392 C 508.307 228.540, 506.419 228.419, 504 226 C 501.865 223.865, 499 223.318, 499 225.045 C 499 227.229, 503.953 231, 506.820 231 C 512.743 231, 517.386 224.225, 513.609 221.091 C 512.844 220.456, 510.257 219.368, 507.859 218.674 C 505.287 217.930, 503.500 216.815, 503.500 215.956 C 503.500 213.929, 508.378 213.546, 509.958 215.449 C 511.540 217.356, 514 217.481, 514 215.655 C 514 212.151, 505.893 209.433, 502.400 211.765 M 519.924 213.581 C 516.683 217.031, 516.483 224.927, 519.560 228.004 C 522.732 231.177, 527.932 231.628, 531.250 229.018 C 534.117 226.763, 534.927 224, 532.722 224 C 532.019 224, 530.674 224.900, 529.732 226 C 528.790 227.100, 527.340 228, 526.510 228 C 524.815 228, 521 224.538, 521 223 C 521 222.429, 524 222, 528 222 C 534.741 222, 535 221.910, 535 219.577 C 535 218.244, 533.835 215.769, 532.411 214.077 C 528.970 209.987, 523.505 209.770, 519.924 213.581 M 540.223 212.557 C 537.754 214.286, 537.238 217, 539.378 217 C 540.135 217, 541.334 216.302, 542.042 215.449 C 543.963 213.135, 549.500 213.916, 549.500 216.500 C 549.500 218.109, 548.637 218.615, 545.090 219.088 C 542.207 219.473, 540.043 220.464, 538.840 221.949 C 536.457 224.892, 536.519 226.519, 539.113 229.113 C 540.841 230.841, 541.887 231.092, 544.863 230.494 C 546.863 230.092, 549.850 229.808, 551.500 229.862 L 554.500 229.961 554 222.131 C 553.715 217.665, 552.910 213.592, 552.128 212.651 C 550.356 210.520, 543.210 210.464, 540.223 212.557 M 558 220.658 C 558 229.333, 558.143 230, 560 230 C 561.775 230, 562 229.333, 562 224.082 C 562 216.645, 562.634 215, 565.500 215 C 567.703 215, 569.669 212.531, 568.192 211.619 C 567.796 211.374, 565.341 211.206, 562.736 211.245 L 558 211.317 558 220.658 M 571.924 213.581 C 568.573 217.148, 568.483 224.927, 571.755 228.199 C 574.938 231.382, 581.498 231.338, 584.107 228.116 C 587.946 223.375, 585.544 221.042, 581.412 225.500 C 578.611 228.523, 577.601 228.601, 575 226 C 569.550 220.550, 575.449 210.477, 581.097 215.588 C 582.062 216.461, 583.603 217.023, 584.521 216.838 C 585.998 216.539, 585.940 216.182, 584.023 213.750 C 581.051 209.981, 575.381 209.901, 571.924 213.581 M 663.455 213.455 C 661.582 215.327, 661 216.967, 661 220.373 C 661 226.304, 661.678 227.782, 665.243 229.625 C 669.055 231.597, 674.397 230.699, 676.471 227.738 C 678.504 224.835, 678.399 224, 676 224 C 674.900 224, 674 224.434, 674 224.965 C 674 226.476, 670.118 228.172, 668.114 227.536 C 667.118 227.220, 665.795 225.845, 665.173 224.481 L 664.043 222 671.021 222 L 678 222 678 218.955 C 678 214.647, 674.103 211, 669.500 211 C 667.021 211, 665.149 211.760, 663.455 213.455 M 682 220.500 C 682 228.278, 682.272 230, 683.500 230 C 684.661 230, 685 228.688, 685 224.191 C 685 217.769, 686.194 215.542, 690.124 214.632 C 692.620 214.055, 692.892 214.406, 695.661 221.762 C 699.710 232.521, 701.334 232.352, 705.838 220.703 C 707.708 215.864, 708.979 211.646, 708.662 211.329 C 707.115 209.782, 704.997 212.498, 702.947 218.658 L 700.684 225.460 698.393 219.480 C 697.134 216.191, 696.080 212.938, 696.052 212.250 C 695.984 210.615, 687.827 210.573, 686.200 212.200 C 685.267 213.133, 685 213.133, 685 212.200 C 685 211.540, 684.325 211, 683.500 211 C 682.272 211, 682 212.722, 682 220.500 M 712 220.500 C 712 228.278, 712.272 230, 713.500 230 C 714.728 230, 715 228.278, 715 220.500 C 715 212.722, 714.728 211, 713.500 211 C 712.272 211, 712 212.722, 712 220.500 M 721.455 213.455 C 719.518 215.391, 719.007 216.920, 719.032 220.705 C 719.074 227.071, 722.420 231, 727.799 231 C 730.523 231, 735 227.224, 735 224.927 C 735 222.228, 733.310 222.528, 730.570 225.714 C 728.521 228.095, 727.931 228.290, 725.760 227.300 C 722.703 225.908, 721.468 220.887, 723.259 217.133 C 724.887 213.719, 729.393 212.998, 730.948 215.903 C 731.590 217.102, 732.635 217.694, 733.515 217.356 C 735.525 216.585, 735.382 215.382, 733 213 C 730.126 210.126, 724.564 210.345, 721.455 213.455 M 739.455 213.455 C 737.582 215.327, 737 216.967, 737 220.373 C 737 226.304, 737.678 227.782, 741.243 229.625 C 745.055 231.597, 750.397 230.699, 752.471 227.738 C 754.504 224.835, 754.399 224, 752 224 C 750.900 224, 750 224.434, 750 224.965 C 750 226.476, 746.118 228.172, 744.114 227.536 C 743.118 227.220, 741.795 225.845, 741.173 224.481 L 740.043 222 747.021 222 L 754 222 754 218.955 C 754 214.647, 750.103 211, 745.500 211 C 743.021 211, 741.149 211.760, 739.455 213.455 M 759.223 212.557 C 754.499 215.865, 757.321 220.932, 764.750 222.481 C 768.467 223.256, 769.290 226.456, 766.038 227.488 C 763.912 228.163, 760 226.528, 760 224.965 C 760 224.434, 759.294 224, 758.430 224 C 755.960 224, 757.118 228.250, 760 229.760 C 762.752 231.201, 768.382 230.758, 770.589 228.926 C 772.385 227.436, 772.419 222.593, 770.645 221.120 C 769.900 220.502, 767.537 219.389, 765.395 218.648 C 760.509 216.958, 759.506 214, 763.820 214 C 765.534 214, 767.029 214.633, 767.362 215.500 C 768.007 217.181, 770.564 217.514, 771.477 216.036 C 771.805 215.507, 771.157 214.157, 770.036 213.036 C 767.586 210.586, 762.367 210.355, 759.223 212.557 M 59 228.286 C 59 243.204, 59.175 244.919, 60.750 245.404 C 64.545 246.573, 113.209 256, 115.449 256 C 119.609 256, 120.849 254.979, 126.527 246.875 C 133.174 237.389, 140.059 230, 142.252 230 C 144.988 230, 149.706 234.782, 157.646 245.604 C 162.143 251.732, 166.168 256.224, 167.401 256.489 C 168.556 256.737, 182.100 254.333, 197.500 251.146 L 225.500 245.352 225.775 228.536 L 226.050 211.720 218.775 212.347 C 190.336 214.802, 174.943 215.407, 141.500 215.387 C 107.715 215.366, 97.017 214.934, 66.750 212.364 L 59 211.707 59 228.286 M 408.557 216.223 C 407.701 217.445, 407 219.370, 407 220.500 C 407 225.877, 413.704 229.291, 415.965 225.066 C 419.702 218.082, 412.923 209.989, 408.557 216.223 M 484.571 215.571 C 481.953 218.190, 482.763 219, 488 219 C 493.373 219, 493.537 218.873, 491.965 215.934 C 490.712 213.594, 486.744 213.399, 484.571 215.571 M 522.571 215.571 C 519.953 218.190, 520.763 219, 526 219 C 531.373 219, 531.537 218.873, 529.965 215.934 C 528.712 213.594, 524.744 213.399, 522.571 215.571 M 666.200 215.200 C 663.730 217.670, 664.885 219, 669.500 219 C 672.526 219, 674 218.574, 674 217.700 C 674 215.753, 671.869 214, 669.500 214 C 668.345 214, 666.860 214.540, 666.200 215.200 M 742.200 215.200 C 739.730 217.670, 740.885 219, 745.500 219 C 748.526 219, 750 218.574, 750 217.700 C 750 215.753, 747.869 214, 745.500 214 C 744.345 214, 742.860 214.540, 742.200 215.200 M 338.500 221.491 C 337.950 221.675, 336.233 222.105, 334.685 222.448 C 332.490 222.934, 331.939 223.558, 332.185 225.285 C 332.383 226.674, 333.316 227.616, 334.689 227.811 C 337.100 228.155, 341 224.873, 341 222.500 C 341 221.028, 340.497 220.825, 338.500 221.491 M 546.324 221.808 C 542.263 222.202, 540.247 224.388, 542 226.500 C 543.706 228.556, 546.345 228.381, 548.433 226.074 C 550.983 223.256, 550.087 221.443, 546.324 221.808" stroke="none" fill="#fafafa" fill-rule="evenodd"/></svg>